<svg width="152" height="152" viewBox="0 0 152 152" fill="none" xmlns="http://www.w3.org/2000/svg">
<path fill-rule="evenodd" clip-rule="evenodd" d="M123.5 80.75C122.24 80.75 121.032 80.2496 120.141 79.3588C119.25 78.468 118.75 77.2598 118.75 76L118.75 33.25L75.9996 33.25C74.7398 33.25 73.5316 32.7496 72.6408 31.8588C71.75 30.968 71.2496 29.7598 71.2496 28.5C71.2496 27.2402 71.75 26.032 72.6408 25.1412C73.5316 24.2504 74.7398 23.75 75.9996 23.75L123.5 23.75C124.759 23.75 125.968 24.2504 126.858 25.1412C127.749 26.032 128.25 27.2402 128.25 28.5L128.25 76C128.25 77.2598 127.749 78.468 126.858 79.3588C125.968 80.2496 124.759 80.75 123.5 80.75Z" fill="#EE6C4D"/>
<path fill-rule="evenodd" clip-rule="evenodd" d="M34.6368 117.363C34.1945 116.922 33.8435 116.398 33.604 115.821C33.3646 115.243 33.2413 114.625 33.2413 114C33.2413 113.375 33.3646 112.757 33.604 112.179C33.8435 111.602 34.1945 111.078 34.6368 110.637L120.137 25.137C121.029 24.2451 122.238 23.744 123.5 23.744C124.761 23.744 125.971 24.2451 126.863 25.137C127.755 26.0289 128.256 27.2386 128.256 28.5C128.256 29.7614 127.755 30.9711 126.863 31.863L41.3628 117.363C40.9216 117.805 40.3974 118.156 39.8203 118.396C39.2432 118.635 38.6246 118.758 37.9998 118.758C37.375 118.758 36.7564 118.635 36.1793 118.396C35.6022 118.156 35.078 117.805 34.6368 117.363Z" fill="#EE6C4D"/>
</svg>
