<svg width="152" height="152" viewBox="0 0 152 152" fill="none" xmlns="http://www.w3.org/2000/svg">
<path d="M111.511 66.4667L80.0233 16.3257C79.5664 15.6845 78.9629 15.1618 78.2631 14.8011C77.5632 14.4405 76.7873 14.2523 76 14.2523C75.2127 14.2523 74.4368 14.4405 73.7369 14.8011C73.0371 15.1618 72.4336 15.6845 71.9767 16.3257L40.3465 66.7042C35.9522 73.7925 33.5044 81.914 33.25 90.25C33.25 101.588 37.754 112.462 45.7712 120.479C53.7884 128.496 64.662 133 76 133C87.338 133 98.2116 128.496 106.229 120.479C114.246 112.462 118.75 101.588 118.75 90.25C118.477 81.8225 115.979 73.6172 111.511 66.4667ZM76 123.5C67.185 123.489 58.7343 119.982 52.5012 113.749C46.2681 107.516 42.7613 99.065 42.75 90.25C43.0025 83.6075 44.9977 77.1484 48.5355 71.5207L52.9767 64.4432L100.828 112.295C97.7204 115.816 93.8996 118.636 89.6192 120.569C85.3388 122.501 80.6965 123.502 76 123.505V123.5Z" fill="#EE6C4D"/>
</svg>
