<svg width="152" height="152" viewBox="0 0 152 152" fill="none" xmlns="http://www.w3.org/2000/svg">
<path d="M139.08 72.2C114 37.24 64.6 28.88 29.64 54.72C20.52 61.56 12.92 70.68 6.84 80.56C8.36 83.6 10.64 86.64 12.92 89.68C38 124.64 85.88 132.24 120.84 107.92C127.68 102.6 133.76 97.28 139.08 89.68C141.36 86.64 142.88 83.6 145.16 80.56C142.88 77.52 141.36 74.48 139.08 72.2ZM76.76 54.72C80.56 50.92 86.64 50.92 90.44 54.72C94.24 58.52 94.24 64.6 90.44 68.4C86.64 72.2 80.56 72.2 76.76 68.4C72.96 64.6 72.96 58.52 76.76 54.72ZM76 113.24C52.44 113.24 30.4 101.08 17.48 81.32C26.6 68.4 38.76 59.28 53.2 54.72C47.88 60.8 45.6 67.64 45.6 75.24C45.6 91.96 58.52 106.4 76 106.4C92.72 106.4 107.16 93.48 107.16 76V75.24C107.16 67.64 104.12 60.04 98.8 54.72C113.24 59.28 125.4 68.4 134.52 81.32C121.6 101.08 99.56 113.24 76 113.24Z" fill="#EE6C4D"/>
</svg>
