<svg width="152" height="152" viewBox="0 0 152 152" fill="none" xmlns="http://www.w3.org/2000/svg">
<path d="M100.938 142.5H31.4688C22.7109 142.5 15.1644 140.175 9.63953 135.779C3.33391 130.756 0 123.307 0 114.238C0 106.323 2.9925 99.4531 8.65094 94.3736C13.1753 90.3124 19.3889 87.4831 26.1666 86.4055C26.1844 86.4055 26.1903 86.4055 26.1933 86.3906C28.1052 74.8125 33.2678 64.9889 41.1291 57.9856C48.7768 51.2027 58.6527 47.4705 68.875 47.5C77.8495 47.5 86.2362 50.2877 93.1327 55.5661C98.5218 59.7432 102.819 65.1633 105.658 71.3628C105.965 72.0362 106.425 72.6285 107.002 73.0924C107.579 73.5563 108.256 73.879 108.98 74.0347C116.699 75.7002 123.349 79.1677 128.327 84.1285C134.484 90.2827 137.75 98.4764 137.75 107.825C137.75 117.577 133.852 126.49 126.766 132.917C119.97 139.098 110.794 142.5 100.938 142.5Z" fill="#EE6C4D"/>
<path d="M115.155 65.8113C118.747 66.8766 122.208 68.3414 125.474 70.1783C125.632 70.2668 125.807 70.3182 125.988 70.3286C126.168 70.339 126.348 70.308 126.515 70.2382C126.682 70.1683 126.83 70.0614 126.949 69.9255C127.068 69.7896 127.155 69.6283 127.202 69.4539C127.918 66.8752 128.27 64.2094 128.25 61.5333C128.134 45.9681 115.342 33.2649 99.7767 33.25C93.9247 33.2352 88.2115 35.0324 83.4219 38.3949H83.4041C83.2503 38.5038 83.1304 38.6539 83.0579 38.8278C82.9855 39.0018 82.9635 39.1926 82.9945 39.3785C83.0255 39.5643 83.1082 39.7377 83.2331 39.8788C83.358 40.0199 83.5202 40.1229 83.7009 40.1761C89.2024 41.8596 94.3582 44.514 98.9247 48.0136C104.411 52.2538 108.986 57.5555 112.379 63.6025C112.984 64.6696 113.979 65.4611 115.155 65.8113Z" fill="#EE6C4D"/>
<path d="M147.25 66.5H137.75C136.49 66.5 135.282 65.9996 134.391 65.1088C133.5 64.218 133 63.0098 133 61.75C133 60.4902 133.5 59.2821 134.391 58.3913C135.282 57.5005 136.49 57 137.75 57H147.25C148.51 57 149.718 57.5005 150.609 58.3913C151.5 59.2821 152 60.4902 152 61.75C152 63.0098 151.5 64.218 150.609 65.1088C149.718 65.9996 148.51 66.5 147.25 66.5Z" fill="#EE6C4D"/>
<path d="M99.75 28.5C98.4902 28.5 97.282 27.9996 96.3912 27.1088C95.5004 26.218 95 25.0098 95 23.75V14.25C95 12.9902 95.5004 11.7821 96.3912 10.8913C97.282 10.0005 98.4902 9.50002 99.75 9.50002C101.01 9.50002 102.218 10.0005 103.109 10.8913C104 11.7821 104.5 12.9902 104.5 14.25V23.75C104.5 25.0098 104 26.218 103.109 27.1088C102.218 27.9996 101.01 28.5 99.75 28.5Z" fill="#EE6C4D"/>
<path d="M72.8798 39.6299C72.256 39.6309 71.6381 39.5084 71.0618 39.2694C70.4855 39.0304 69.9623 38.6797 69.5222 38.2375L62.8039 31.5222C61.913 30.6313 61.4125 29.423 61.4125 28.1631C61.4125 26.9031 61.913 25.6948 62.8039 24.8039C63.6948 23.913 64.9031 23.4125 66.163 23.4125C67.423 23.4125 68.6313 23.913 69.5222 24.8039L76.2375 31.5222C76.9014 32.1865 77.3534 33.0327 77.5365 33.9538C77.7196 34.8749 77.6255 35.8296 77.2662 36.6973C76.9069 37.565 76.2984 38.3067 75.5177 38.8286C74.7369 39.3506 73.819 39.6294 72.8798 39.6299Z" fill="#EE6C4D"/>
<path d="M126.62 39.6299C125.681 39.6294 124.763 39.3506 123.982 38.8286C123.202 38.3067 122.593 37.565 122.234 36.6973C121.874 35.8296 121.78 34.8749 121.964 33.9538C122.147 33.0327 122.599 32.1865 123.263 31.5222L129.978 24.8039C130.869 23.913 132.077 23.4125 133.337 23.4125C134.597 23.4125 135.805 23.913 136.696 24.8039C137.587 25.6948 138.087 26.9031 138.087 28.1631C138.087 29.423 137.587 30.6313 136.696 31.5222L129.978 38.2375C129.538 38.6797 129.014 39.0304 128.438 39.2694C127.862 39.5084 127.244 39.6309 126.62 39.6299Z" fill="#EE6C4D"/>
</svg>
