<svg width="199" height="115" viewBox="0 0 199 115" fill="none" xmlns="http://www.w3.org/2000/svg">
<path d="M40.368 13.4V47H36.96V20.12L23.76 42.728H22.08L8.88 20.264V47H5.472V13.4H8.4L22.992 38.312L37.44 13.4H40.368ZM50.5958 21.752H54.0038V47H50.5958V21.752ZM52.3238 16.232C51.6198 16.232 51.0278 15.992 50.5478 15.512C50.0678 15.032 49.8278 14.456 49.8278 13.784C49.8278 13.144 50.0678 12.584 50.5478 12.104C51.0278 11.624 51.6198 11.384 52.3238 11.384C53.0278 11.384 53.6198 11.624 54.0998 12.104C54.5798 12.552 54.8198 13.096 54.8198 13.736C54.8198 14.44 54.5798 15.032 54.0998 15.512C53.6198 15.992 53.0278 16.232 52.3238 16.232ZM76.3504 21.56C79.5184 21.56 82.0304 22.488 83.8864 24.344C85.7744 26.168 86.7184 28.84 86.7184 32.36V47H83.3104V32.696C83.3104 30.072 82.6544 28.072 81.3424 26.696C80.0304 25.32 78.1584 24.632 75.7264 24.632C73.0064 24.632 70.8464 25.448 69.2464 27.08C67.6784 28.68 66.8944 30.904 66.8944 33.752V47H63.4864V21.752H66.7504V26.408C67.6784 24.872 68.9584 23.688 70.5904 22.856C72.2544 21.992 74.1744 21.56 76.3504 21.56Z" fill="#EE6C4D"/>
<path d="M139.368 69.4V103H135.96V76.12L122.76 98.728H121.08L107.88 76.264V103H104.472V69.4H107.4L121.992 94.312L136.44 69.4H139.368ZM158.428 77.56C161.724 77.56 164.252 78.392 166.012 80.056C167.772 81.688 168.652 84.12 168.652 87.352V103H165.388V99.064C164.62 100.376 163.484 101.4 161.98 102.136C160.508 102.872 158.748 103.24 156.7 103.24C153.884 103.24 151.644 102.568 149.98 101.224C148.316 99.88 147.484 98.104 147.484 95.896C147.484 93.752 148.252 92.024 149.788 90.712C151.356 89.4 153.836 88.744 157.228 88.744H165.244V87.208C165.244 85.032 164.636 83.384 163.42 82.264C162.204 81.112 160.428 80.536 158.092 80.536C156.492 80.536 154.956 80.808 153.484 81.352C152.012 81.864 150.748 82.584 149.692 83.512L148.156 80.968C149.436 79.88 150.972 79.048 152.764 78.472C154.556 77.864 156.444 77.56 158.428 77.56ZM157.228 100.552C159.148 100.552 160.796 100.12 162.172 99.256C163.548 98.36 164.572 97.08 165.244 95.416V91.288H157.324C153.004 91.288 150.844 92.792 150.844 95.8C150.844 97.272 151.404 98.44 152.524 99.304C153.644 100.136 155.212 100.552 157.228 100.552ZM193.988 103L185.972 92.44L177.908 103H174.068L184.052 90.04L174.548 77.752H178.388L185.972 87.64L193.556 77.752H197.3L187.796 90.04L197.876 103H193.988Z" fill="#EE6C4D"/>
<rect x="50" y="93.2121" width="109" height="4" rx="2" transform="rotate(-37.4054 50 93.2121)" fill="#EE6C4D"/>
</svg>
