<svg width="186" height="152" viewBox="0 0 186 152" fill="none" xmlns="http://www.w3.org/2000/svg">
<g clip-path="url(#clip0)">
<path d="M161.606 125.565H152.003C152.003 114.757 149.353 104.793 144.052 95.6712C138.751 86.5498 131.54 79.3388 122.419 74.038C113.298 68.7373 103.333 66.087 92.525 66.087C81.717 66.087 71.7523 68.7373 62.631 74.038C53.5096 79.3388 46.2985 86.5498 40.9978 95.6712C35.6971 104.793 33.0467 114.757 33.0467 125.565H23.4435L4.8565 99.9565C4.23693 99.0616 4.09925 98.0634 4.44345 96.962C4.71881 95.9293 5.40722 95.2409 6.50867 94.8967L36.6608 84.8804V53.2826C36.7985 52.0435 37.2804 51.1486 38.1065 50.5978C39.0703 49.9783 40.0685 49.8406 41.1011 50.1848L71.2532 59.8913L89.8402 34.2826C90.4598 33.4565 91.3547 33.0435 92.525 33.0435C93.6953 33.0435 94.5902 33.4565 95.2098 34.2826L113.797 59.8913L143.949 50.1848C144.981 49.8406 145.98 49.9783 146.943 50.5978C147.838 51.2862 148.286 52.1812 148.286 53.2826V84.8804L178.541 94.8967C178.954 95.0344 179.402 95.3098 179.884 95.7228C180.366 96.1359 180.606 96.5489 180.606 96.962C180.882 97.9946 180.744 98.9928 180.193 99.9565L161.503 125.565H161.606ZM5.68258 135.478C4.23693 135.478 2.92896 136.046 1.75867 137.182C0.58838 138.318 0.00323486 139.643 0.00323486 141.158V146.321C0.00323486 147.835 0.58838 149.16 1.75867 150.296C2.92896 151.432 4.23693 152 5.68258 152H179.367C180.813 152 182.121 151.432 183.291 150.296C184.462 149.16 185.047 147.835 185.047 146.321V141.158C185.047 139.643 184.462 138.318 183.291 137.182C182.121 136.046 180.813 135.478 179.367 135.478H5.68258ZM92.525 76C83.5757 76 75.2976 78.2201 67.6907 82.6603C60.0839 87.1005 54.0603 93.1241 49.6201 100.731C45.1799 108.338 42.9598 116.616 42.9598 125.565H142.09C142.09 116.616 139.87 108.338 135.43 100.731C130.99 93.1241 124.966 87.1005 117.359 82.6603C109.752 78.2201 101.474 76 92.525 76Z" fill="#EE6C4D"/>
</g>
<defs>
<clipPath id="clip0">
<rect width="185.05" height="152" fill="white"/>
</clipPath>
</defs>
</svg>
